<svg xmlns="http://www.w3.org/2000/svg" xmlns:xlink="http://www.w3.org/1999/xlink" width="500" zoomAndPan="magnify" viewBox="0 0 375 374.999991" height="500" preserveAspectRatio="xMidYMid meet" version="1.0"><defs><g/><clipPath id="0aa0fbe583"><path d="M 0.480469 0.160156 L 333.894531 0.160156 L 333.894531 347.679688 L 0.480469 347.679688 Z M 0.480469 0.160156 " clip-rule="nonzero"/></clipPath><clipPath id="12f4e9d09a"><path d="M 107.355469 100.007812 L 241.820312 100.007812 L 241.820312 253.90625 L 107.355469 253.90625 Z M 107.355469 100.007812 " clip-rule="nonzero"/></clipPath><clipPath id="46548df101"><path d="M 174.589844 100.007812 L 201.839844 130.128906 L 241.820312 138.425781 L 229.089844 176.84375 L 241.820312 215.261719 L 201.839844 223.558594 L 174.589844 253.683594 L 147.339844 223.558594 L 107.355469 215.261719 L 120.089844 176.84375 L 107.355469 138.425781 L 147.339844 130.128906 Z M 174.589844 100.007812 " clip-rule="nonzero"/></clipPath><clipPath id="6a921c97cd"><path d="M 0.355469 0.0078125 L 134.820312 0.0078125 L 134.820312 153.839844 L 0.355469 153.839844 Z M 0.355469 0.0078125 " clip-rule="nonzero"/></clipPath><clipPath id="5821a5d9e2"><path d="M 67.589844 0.0078125 L 94.839844 30.128906 L 134.820312 38.425781 L 122.089844 76.84375 L 134.820312 115.261719 L 94.839844 123.558594 L 67.589844 153.683594 L 40.339844 123.558594 L 0.355469 115.261719 L 13.089844 76.84375 L 0.355469 38.425781 L 40.339844 30.128906 Z M 67.589844 0.0078125 " clip-rule="nonzero"/></clipPath><clipPath id="2a47dbdb40"><rect x="0" width="135" y="0" height="154"/></clipPath><clipPath id="eed0e3e4ce"><rect x="0" width="74" y="0" height="165"/></clipPath><clipPath id="69a0509d4e"><rect x="0" width="335" y="0" height="348"/></clipPath></defs><g transform="matrix(1, 0, 0, 1, 18, 14)"><g clip-path="url(#69a0509d4e)"><g clip-path="url(#0aa0fbe583)"><path fill="#00bf63" d="M 235.835938 111.320312 C 207.546875 83.328125 165.113281 78.316406 130.636719 97.472656 C 123.269531 101.300781 114.132812 109.257812 102.640625 120.75 C 71.996094 151.691406 40.171875 183.515625 6.871094 216.519531 C 5.988281 217.402344 5.695312 217.109375 5.398438 215.929688 C -9.628906 148.15625 12.175781 80.675781 65.808594 38.242188 C 131.816406 -13.914062 225.519531 -12.441406 288.285156 43.25 C 300.074219 53.859375 315.101562 68.59375 333.078125 87.746094 C 333.667969 88.335938 333.667969 88.925781 333.078125 89.515625 L 274.140625 148.449219 C 274.140625 148.449219 273.847656 148.449219 273.554688 148.449219 C 273.554688 148.449219 273.257812 148.449219 272.964844 148.449219 C 261.765625 136.957031 249.390625 124.582031 235.835938 111.320312 Z M 139.476562 254.828125 C 173.953125 268.972656 211.082031 261.3125 237.601562 235.085938 C 249.09375 223.296875 260.882812 211.511719 272.964844 199.722656 C 273.257812 199.132812 274.140625 199.132812 274.4375 199.722656 L 333.667969 258.953125 C 333.960938 259.246094 333.960938 259.542969 333.667969 259.835938 C 319.816406 274.277344 305.671875 288.125 291.527344 301.679688 C 240.550781 350.890625 160.398438 360.910156 97.335938 329.675781 C 67.574219 315.234375 43.414062 292.839844 24.847656 263.078125 C 24.847656 262.785156 24.554688 262.488281 24.554688 262.195312 C 24.554688 261.898438 24.847656 261.3125 25.140625 261.015625 L 80.246094 205.910156 C 80.542969 205.617188 81.425781 205.617188 81.71875 205.910156 C 92.621094 217.109375 103.820312 228.308594 115.3125 239.210938 C 122.089844 245.398438 130.046875 250.703125 139.476562 254.828125 Z M 217.859375 173.792969 C 217.859375 149.921875 198.117188 130.179688 173.953125 130.179688 C 150.085938 130.179688 130.339844 149.921875 130.339844 173.792969 C 130.339844 197.957031 150.085938 217.699219 173.953125 217.699219 C 198.117188 217.699219 217.859375 197.957031 217.859375 173.792969 Z M 217.859375 173.792969 " fill-opacity="1" fill-rule="evenodd"/></g><g clip-path="url(#12f4e9d09a)"><g clip-path="url(#46548df101)"><g transform="matrix(1, 0, 0, 1, 107, 100)"><g clip-path="url(#2a47dbdb40)"><g clip-path="url(#6a921c97cd)"><g clip-path="url(#5821a5d9e2)"><path fill="#00bf63" d="M 0.355469 0.0078125 L 134.820312 0.0078125 L 134.820312 153.90625 L 0.355469 153.90625 Z M 0.355469 0.0078125 " fill-opacity="1" fill-rule="nonzero"/></g></g></g></g></g></g><g transform="matrix(1, 0, 0, 1, 138, 88)"><g clip-path="url(#eed0e3e4ce)"><g fill="#ffffff" fill-opacity="1"><g transform="translate(0.803695, 129.325756)"><g><path d="M 32.65625 -80.1875 C 34.09375 -80.425781 35.890625 -80.546875 38.046875 -80.546875 C 39.328125 -80.546875 41.445312 -80.441406 44.40625 -80.234375 C 47.375 -80.035156 49.859375 -79.65625 51.859375 -79.09375 C 58.898438 -76.9375 63.859375 -72.695312 66.734375 -66.375 C 66.816406 -66.21875 66.9375 -65.9375 67.09375 -65.53125 C 68.050781 -63.53125 68.53125 -62.09375 68.53125 -61.21875 C 68.53125 -61.050781 68.453125 -60.726562 68.296875 -60.25 C 68.140625 -59.769531 66.457031 -58.648438 63.25 -56.890625 C 62.851562 -56.734375 62.578125 -56.613281 62.421875 -56.53125 C 58.171875 -54.207031 55.890625 -53.046875 55.578125 -53.046875 C 55.410156 -53.046875 54.890625 -53.726562 54.015625 -55.09375 C 51.691406 -58.613281 48.890625 -61.054688 45.609375 -62.421875 C 43.847656 -63.054688 42.347656 -63.394531 41.109375 -63.4375 C 39.867188 -63.476562 39.128906 -63.5 38.890625 -63.5 C 36.804688 -63.5 34.96875 -63.175781 33.375 -62.53125 C 29.6875 -61.332031 26.84375 -58.691406 24.84375 -54.609375 C 22.84375 -50.535156 21.84375 -45.457031 21.84375 -39.375 C 21.925781 -31.851562 23.523438 -26.03125 26.640625 -21.90625 C 29.765625 -17.78125 34.128906 -15.71875 39.734375 -15.71875 C 44.929688 -15.800781 49.570312 -18.125 53.65625 -22.6875 C 55.738281 -24.925781 56.78125 -26.207031 56.78125 -26.53125 C 56.78125 -26.769531 56.976562 -26.890625 57.375 -26.890625 C 58.332031 -26.890625 60.570312 -25.847656 64.09375 -23.765625 C 66.738281 -22.242188 68.300781 -21.265625 68.78125 -20.828125 C 69.257812 -20.390625 69.5 -19.847656 69.5 -19.203125 C 69.5 -19.117188 69.5 -19.039062 69.5 -18.96875 C 69.414062 -17.925781 68.773438 -16.285156 67.578125 -14.046875 C 66.054688 -10.679688 63.691406 -7.78125 60.484375 -5.34375 C 57.285156 -2.90625 53.609375 -1.125 49.453125 0 C 47.054688 0.632812 43.414062 0.953125 38.53125 0.953125 C 33.644531 0.953125 30.003906 0.632812 27.609375 0 C 15.285156 -3.363281 7.28125 -11.765625 3.59375 -25.203125 C 2.800781 -28.003906 2.40625 -32.40625 2.40625 -38.40625 C 2.40625 -43.6875 2.722656 -47.804688 3.359375 -50.765625 C 4.003906 -53.734375 5.242188 -57.175781 7.078125 -61.09375 C 12.203125 -71.65625 20.726562 -78.019531 32.65625 -80.1875 Z M 32.65625 -80.1875 "/></g></g></g></g></g></g></g></svg>